<mxfile host="app.diagrams.net" modified="2024-01-23T05:43:11.821Z" agent="Mozilla/5.0 (Windows NT 10.0; Win64; x64; rv:121.0) Gecko/20100101 Firefox/121.0" etag="pEdY8YDP1kwPwcN47gFL" version="22.1.21" type="device">
  <diagram id="C5RBs43oDa-KdzZeNtuy" name="Page-1">
    <mxGraphModel dx="978" dy="482" grid="1" gridSize="10" guides="1" tooltips="1" connect="1" arrows="1" fold="1" page="1" pageScale="1" pageWidth="827" pageHeight="1169" math="0" shadow="0">
      <root>
        <mxCell id="WIyWlLk6GJQsqaUBKTNV-0" />
        <mxCell id="WIyWlLk6GJQsqaUBKTNV-1" parent="WIyWlLk6GJQsqaUBKTNV-0" />
        <mxCell id="hy1i4Z7QahPfgGf05g7D-54" style="edgeStyle=orthogonalEdgeStyle;rounded=0;orthogonalLoop=1;jettySize=auto;html=1;entryX=0.5;entryY=0;entryDx=0;entryDy=0;" edge="1" parent="WIyWlLk6GJQsqaUBKTNV-1" target="hy1i4Z7QahPfgGf05g7D-56">
          <mxGeometry relative="1" as="geometry">
            <mxPoint x="230.0175438596491" y="40" as="sourcePoint" />
          </mxGeometry>
        </mxCell>
        <mxCell id="hy1i4Z7QahPfgGf05g7D-83" style="edgeStyle=orthogonalEdgeStyle;rounded=0;orthogonalLoop=1;jettySize=auto;html=1;entryX=0.5;entryY=0;entryDx=0;entryDy=0;" edge="1" parent="WIyWlLk6GJQsqaUBKTNV-1" source="hy1i4Z7QahPfgGf05g7D-56" target="hy1i4Z7QahPfgGf05g7D-82">
          <mxGeometry relative="1" as="geometry" />
        </mxCell>
        <mxCell id="hy1i4Z7QahPfgGf05g7D-56" value="n" style="shape=parallelogram;perimeter=parallelogramPerimeter;whiteSpace=wrap;html=1;fixedSize=1;" vertex="1" parent="WIyWlLk6GJQsqaUBKTNV-1">
          <mxGeometry x="170" y="60" width="120" height="30" as="geometry" />
        </mxCell>
        <mxCell id="hy1i4Z7QahPfgGf05g7D-57" style="edgeStyle=orthogonalEdgeStyle;rounded=0;orthogonalLoop=1;jettySize=auto;html=1;entryX=0.5;entryY=0;entryDx=0;entryDy=0;" edge="1" parent="WIyWlLk6GJQsqaUBKTNV-1" source="hy1i4Z7QahPfgGf05g7D-58" target="hy1i4Z7QahPfgGf05g7D-61">
          <mxGeometry relative="1" as="geometry" />
        </mxCell>
        <mxCell id="hy1i4Z7QahPfgGf05g7D-58" value="i = 0" style="rounded=0;whiteSpace=wrap;html=1;" vertex="1" parent="WIyWlLk6GJQsqaUBKTNV-1">
          <mxGeometry x="170" y="210" width="120" height="30" as="geometry" />
        </mxCell>
        <mxCell id="hy1i4Z7QahPfgGf05g7D-59" style="edgeStyle=orthogonalEdgeStyle;rounded=0;orthogonalLoop=1;jettySize=auto;html=1;entryX=0.5;entryY=0;entryDx=0;entryDy=0;" edge="1" parent="WIyWlLk6GJQsqaUBKTNV-1" source="hy1i4Z7QahPfgGf05g7D-61" target="hy1i4Z7QahPfgGf05g7D-63">
          <mxGeometry relative="1" as="geometry" />
        </mxCell>
        <mxCell id="hy1i4Z7QahPfgGf05g7D-60" style="edgeStyle=orthogonalEdgeStyle;rounded=0;orthogonalLoop=1;jettySize=auto;html=1;exitX=1;exitY=0.5;exitDx=0;exitDy=0;entryX=1;entryY=0.5;entryDx=0;entryDy=0;" edge="1" parent="WIyWlLk6GJQsqaUBKTNV-1" source="hy1i4Z7QahPfgGf05g7D-61" target="hy1i4Z7QahPfgGf05g7D-67">
          <mxGeometry relative="1" as="geometry">
            <Array as="points">
              <mxPoint x="360" y="300" />
              <mxPoint x="360" y="475" />
            </Array>
          </mxGeometry>
        </mxCell>
        <mxCell id="hy1i4Z7QahPfgGf05g7D-61" value="i &amp;lt; n" style="rhombus;whiteSpace=wrap;html=1;" vertex="1" parent="WIyWlLk6GJQsqaUBKTNV-1">
          <mxGeometry x="190" y="260" width="80" height="80" as="geometry" />
        </mxCell>
        <mxCell id="hy1i4Z7QahPfgGf05g7D-62" style="edgeStyle=orthogonalEdgeStyle;rounded=0;orthogonalLoop=1;jettySize=auto;html=1;entryX=0.5;entryY=0;entryDx=0;entryDy=0;" edge="1" parent="WIyWlLk6GJQsqaUBKTNV-1" source="hy1i4Z7QahPfgGf05g7D-63" target="hy1i4Z7QahPfgGf05g7D-65">
          <mxGeometry relative="1" as="geometry" />
        </mxCell>
        <mxCell id="hy1i4Z7QahPfgGf05g7D-63" value="array[i]" style="shape=parallelogram;perimeter=parallelogramPerimeter;whiteSpace=wrap;html=1;fixedSize=1;" vertex="1" parent="WIyWlLk6GJQsqaUBKTNV-1">
          <mxGeometry x="170" y="360" width="120" height="30" as="geometry" />
        </mxCell>
        <mxCell id="hy1i4Z7QahPfgGf05g7D-64" style="edgeStyle=elbowEdgeStyle;rounded=0;orthogonalLoop=1;jettySize=auto;html=1;" edge="1" parent="WIyWlLk6GJQsqaUBKTNV-1" source="hy1i4Z7QahPfgGf05g7D-65" target="hy1i4Z7QahPfgGf05g7D-61">
          <mxGeometry relative="1" as="geometry">
            <mxPoint x="160" y="300" as="targetPoint" />
            <Array as="points">
              <mxPoint x="90" y="360" />
            </Array>
          </mxGeometry>
        </mxCell>
        <mxCell id="hy1i4Z7QahPfgGf05g7D-65" value="i = i + 1" style="rounded=0;whiteSpace=wrap;html=1;" vertex="1" parent="WIyWlLk6GJQsqaUBKTNV-1">
          <mxGeometry x="170" y="410" width="120" height="30" as="geometry" />
        </mxCell>
        <mxCell id="hy1i4Z7QahPfgGf05g7D-87" style="edgeStyle=orthogonalEdgeStyle;rounded=0;orthogonalLoop=1;jettySize=auto;html=1;entryX=0.5;entryY=0;entryDx=0;entryDy=0;" edge="1" parent="WIyWlLk6GJQsqaUBKTNV-1" source="hy1i4Z7QahPfgGf05g7D-67" target="hy1i4Z7QahPfgGf05g7D-86">
          <mxGeometry relative="1" as="geometry" />
        </mxCell>
        <mxCell id="hy1i4Z7QahPfgGf05g7D-67" value="minimum = array[0]" style="rounded=0;whiteSpace=wrap;html=1;" vertex="1" parent="WIyWlLk6GJQsqaUBKTNV-1">
          <mxGeometry x="170" y="460" width="120" height="30" as="geometry" />
        </mxCell>
        <mxCell id="hy1i4Z7QahPfgGf05g7D-68" style="edgeStyle=orthogonalEdgeStyle;rounded=0;orthogonalLoop=1;jettySize=auto;html=1;entryX=0.5;entryY=0;entryDx=0;entryDy=0;" edge="1" parent="WIyWlLk6GJQsqaUBKTNV-1" source="hy1i4Z7QahPfgGf05g7D-69">
          <mxGeometry relative="1" as="geometry">
            <mxPoint x="230.0000000000001" y="710" as="targetPoint" />
          </mxGeometry>
        </mxCell>
        <mxCell id="hy1i4Z7QahPfgGf05g7D-114" style="edgeStyle=elbowEdgeStyle;rounded=0;orthogonalLoop=1;jettySize=auto;html=1;" edge="1" parent="WIyWlLk6GJQsqaUBKTNV-1" source="hy1i4Z7QahPfgGf05g7D-69" target="hy1i4Z7QahPfgGf05g7D-102">
          <mxGeometry relative="1" as="geometry">
            <Array as="points">
              <mxPoint x="360" y="875" />
            </Array>
          </mxGeometry>
        </mxCell>
        <mxCell id="hy1i4Z7QahPfgGf05g7D-69" value="i &amp;lt; n" style="rhombus;whiteSpace=wrap;html=1;" vertex="1" parent="WIyWlLk6GJQsqaUBKTNV-1">
          <mxGeometry x="190" y="610" width="80" height="80" as="geometry" />
        </mxCell>
        <mxCell id="hy1i4Z7QahPfgGf05g7D-70" style="edgeStyle=orthogonalEdgeStyle;rounded=0;orthogonalLoop=1;jettySize=auto;html=1;entryX=0.5;entryY=0;entryDx=0;entryDy=0;" edge="1" parent="WIyWlLk6GJQsqaUBKTNV-1" source="hy1i4Z7QahPfgGf05g7D-71" target="hy1i4Z7QahPfgGf05g7D-69">
          <mxGeometry relative="1" as="geometry" />
        </mxCell>
        <mxCell id="hy1i4Z7QahPfgGf05g7D-71" value="i = 1" style="rounded=0;whiteSpace=wrap;html=1;" vertex="1" parent="WIyWlLk6GJQsqaUBKTNV-1">
          <mxGeometry x="170" y="560" width="120" height="30" as="geometry" />
        </mxCell>
        <mxCell id="hy1i4Z7QahPfgGf05g7D-72" style="edgeStyle=elbowEdgeStyle;rounded=0;orthogonalLoop=1;jettySize=auto;html=1;" edge="1" parent="WIyWlLk6GJQsqaUBKTNV-1" source="hy1i4Z7QahPfgGf05g7D-73" target="hy1i4Z7QahPfgGf05g7D-69">
          <mxGeometry relative="1" as="geometry">
            <mxPoint x="90" y="580" as="targetPoint" />
            <Array as="points">
              <mxPoint x="90" y="650" />
            </Array>
          </mxGeometry>
        </mxCell>
        <mxCell id="hy1i4Z7QahPfgGf05g7D-73" value="i = i + 1" style="rounded=0;whiteSpace=wrap;html=1;" vertex="1" parent="WIyWlLk6GJQsqaUBKTNV-1">
          <mxGeometry x="170" y="1010" width="120" height="30" as="geometry" />
        </mxCell>
        <mxCell id="hy1i4Z7QahPfgGf05g7D-80" value="Inicio" style="strokeWidth=1;html=1;shape=mxgraph.flowchart.start_1;whiteSpace=wrap;" vertex="1" parent="WIyWlLk6GJQsqaUBKTNV-1">
          <mxGeometry x="170" y="10" width="120" height="30" as="geometry" />
        </mxCell>
        <mxCell id="hy1i4Z7QahPfgGf05g7D-85" style="edgeStyle=orthogonalEdgeStyle;rounded=0;orthogonalLoop=1;jettySize=auto;html=1;entryX=0.5;entryY=0;entryDx=0;entryDy=0;" edge="1" parent="WIyWlLk6GJQsqaUBKTNV-1" source="hy1i4Z7QahPfgGf05g7D-82" target="hy1i4Z7QahPfgGf05g7D-58">
          <mxGeometry relative="1" as="geometry" />
        </mxCell>
        <mxCell id="hy1i4Z7QahPfgGf05g7D-82" value="n &amp;gt; 0" style="rhombus;whiteSpace=wrap;html=1;" vertex="1" parent="WIyWlLk6GJQsqaUBKTNV-1">
          <mxGeometry x="190" y="110" width="80" height="80" as="geometry" />
        </mxCell>
        <mxCell id="hy1i4Z7QahPfgGf05g7D-89" style="edgeStyle=orthogonalEdgeStyle;rounded=0;orthogonalLoop=1;jettySize=auto;html=1;entryX=0.5;entryY=0;entryDx=0;entryDy=0;" edge="1" parent="WIyWlLk6GJQsqaUBKTNV-1" source="hy1i4Z7QahPfgGf05g7D-86" target="hy1i4Z7QahPfgGf05g7D-71">
          <mxGeometry relative="1" as="geometry" />
        </mxCell>
        <mxCell id="hy1i4Z7QahPfgGf05g7D-86" value="maximum = array[0]" style="rounded=0;whiteSpace=wrap;html=1;" vertex="1" parent="WIyWlLk6GJQsqaUBKTNV-1">
          <mxGeometry x="170" y="510" width="120" height="30" as="geometry" />
        </mxCell>
        <mxCell id="hy1i4Z7QahPfgGf05g7D-96" style="edgeStyle=orthogonalEdgeStyle;rounded=0;orthogonalLoop=1;jettySize=auto;html=1;exitX=0.5;exitY=1;exitDx=0;exitDy=0;entryX=0.5;entryY=0;entryDx=0;entryDy=0;" edge="1" parent="WIyWlLk6GJQsqaUBKTNV-1" source="hy1i4Z7QahPfgGf05g7D-91" target="hy1i4Z7QahPfgGf05g7D-92">
          <mxGeometry relative="1" as="geometry" />
        </mxCell>
        <mxCell id="hy1i4Z7QahPfgGf05g7D-99" style="edgeStyle=orthogonalEdgeStyle;rounded=0;orthogonalLoop=1;jettySize=auto;html=1;exitX=1;exitY=0.5;exitDx=0;exitDy=0;entryX=0.5;entryY=0;entryDx=0;entryDy=0;" edge="1" parent="WIyWlLk6GJQsqaUBKTNV-1" source="hy1i4Z7QahPfgGf05g7D-91" target="hy1i4Z7QahPfgGf05g7D-94">
          <mxGeometry relative="1" as="geometry">
            <Array as="points">
              <mxPoint x="320" y="750" />
              <mxPoint x="320" y="850" />
              <mxPoint x="230" y="850" />
            </Array>
          </mxGeometry>
        </mxCell>
        <mxCell id="hy1i4Z7QahPfgGf05g7D-91" value="array[i] &amp;gt; maximum" style="rhombus;whiteSpace=wrap;html=1;" vertex="1" parent="WIyWlLk6GJQsqaUBKTNV-1">
          <mxGeometry x="190" y="710" width="80" height="80" as="geometry" />
        </mxCell>
        <mxCell id="hy1i4Z7QahPfgGf05g7D-97" style="edgeStyle=orthogonalEdgeStyle;rounded=0;orthogonalLoop=1;jettySize=auto;html=1;exitX=0.5;exitY=1;exitDx=0;exitDy=0;entryX=0.5;entryY=0;entryDx=0;entryDy=0;" edge="1" parent="WIyWlLk6GJQsqaUBKTNV-1" source="hy1i4Z7QahPfgGf05g7D-92" target="hy1i4Z7QahPfgGf05g7D-94">
          <mxGeometry relative="1" as="geometry" />
        </mxCell>
        <mxCell id="hy1i4Z7QahPfgGf05g7D-92" value="maximum = array[i]" style="rounded=0;whiteSpace=wrap;html=1;" vertex="1" parent="WIyWlLk6GJQsqaUBKTNV-1">
          <mxGeometry x="170" y="810" width="120" height="30" as="geometry" />
        </mxCell>
        <mxCell id="hy1i4Z7QahPfgGf05g7D-98" style="edgeStyle=orthogonalEdgeStyle;rounded=0;orthogonalLoop=1;jettySize=auto;html=1;exitX=0.5;exitY=1;exitDx=0;exitDy=0;entryX=0.5;entryY=0;entryDx=0;entryDy=0;" edge="1" parent="WIyWlLk6GJQsqaUBKTNV-1" source="hy1i4Z7QahPfgGf05g7D-94" target="hy1i4Z7QahPfgGf05g7D-95">
          <mxGeometry relative="1" as="geometry" />
        </mxCell>
        <mxCell id="hy1i4Z7QahPfgGf05g7D-100" style="edgeStyle=orthogonalEdgeStyle;rounded=0;orthogonalLoop=1;jettySize=auto;html=1;exitX=1;exitY=0.5;exitDx=0;exitDy=0;" edge="1" parent="WIyWlLk6GJQsqaUBKTNV-1" source="hy1i4Z7QahPfgGf05g7D-94">
          <mxGeometry relative="1" as="geometry">
            <mxPoint x="230" y="1010" as="targetPoint" />
            <Array as="points">
              <mxPoint x="320" y="900" />
              <mxPoint x="320" y="1000" />
              <mxPoint x="230" y="1000" />
            </Array>
          </mxGeometry>
        </mxCell>
        <mxCell id="hy1i4Z7QahPfgGf05g7D-94" value="array[i] &amp;lt; minimum" style="rhombus;whiteSpace=wrap;html=1;" vertex="1" parent="WIyWlLk6GJQsqaUBKTNV-1">
          <mxGeometry x="190" y="860" width="80" height="80" as="geometry" />
        </mxCell>
        <mxCell id="hy1i4Z7QahPfgGf05g7D-101" style="edgeStyle=orthogonalEdgeStyle;rounded=0;orthogonalLoop=1;jettySize=auto;html=1;exitX=0.5;exitY=1;exitDx=0;exitDy=0;entryX=0.5;entryY=0;entryDx=0;entryDy=0;" edge="1" parent="WIyWlLk6GJQsqaUBKTNV-1" source="hy1i4Z7QahPfgGf05g7D-95" target="hy1i4Z7QahPfgGf05g7D-73">
          <mxGeometry relative="1" as="geometry" />
        </mxCell>
        <mxCell id="hy1i4Z7QahPfgGf05g7D-95" value="minimum = array[i]" style="rounded=0;whiteSpace=wrap;html=1;" vertex="1" parent="WIyWlLk6GJQsqaUBKTNV-1">
          <mxGeometry x="170" y="960" width="120" height="30" as="geometry" />
        </mxCell>
        <mxCell id="hy1i4Z7QahPfgGf05g7D-102" value="maximum, minimum" style="strokeWidth=1;html=1;shape=mxgraph.flowchart.document2;whiteSpace=wrap;size=0.25;" vertex="1" parent="WIyWlLk6GJQsqaUBKTNV-1">
          <mxGeometry x="170" y="1060" width="120" height="60" as="geometry" />
        </mxCell>
        <mxCell id="hy1i4Z7QahPfgGf05g7D-103" value="Fin" style="strokeWidth=1;html=1;shape=mxgraph.flowchart.start_1;whiteSpace=wrap;" vertex="1" parent="WIyWlLk6GJQsqaUBKTNV-1">
          <mxGeometry x="170" y="1140" width="120" height="30" as="geometry" />
        </mxCell>
        <mxCell id="hy1i4Z7QahPfgGf05g7D-104" style="edgeStyle=orthogonalEdgeStyle;rounded=0;orthogonalLoop=1;jettySize=auto;html=1;entryX=0.5;entryY=0;entryDx=0;entryDy=0;entryPerimeter=0;" edge="1" parent="WIyWlLk6GJQsqaUBKTNV-1" source="hy1i4Z7QahPfgGf05g7D-102" target="hy1i4Z7QahPfgGf05g7D-103">
          <mxGeometry relative="1" as="geometry" />
        </mxCell>
        <mxCell id="hy1i4Z7QahPfgGf05g7D-105" style="edgeStyle=elbowEdgeStyle;rounded=0;orthogonalLoop=1;jettySize=auto;html=1;entryX=1;entryY=0.5;entryDx=0;entryDy=0;entryPerimeter=0;" edge="1" parent="WIyWlLk6GJQsqaUBKTNV-1" source="hy1i4Z7QahPfgGf05g7D-82" target="hy1i4Z7QahPfgGf05g7D-103">
          <mxGeometry relative="1" as="geometry">
            <Array as="points">
              <mxPoint x="400" y="650" />
            </Array>
          </mxGeometry>
        </mxCell>
        <mxCell id="hy1i4Z7QahPfgGf05g7D-107" value="No" style="text;html=1;strokeColor=none;fillColor=none;align=center;verticalAlign=middle;whiteSpace=wrap;rounded=0;" vertex="1" parent="WIyWlLk6GJQsqaUBKTNV-1">
          <mxGeometry x="280" y="130" width="20" height="20" as="geometry" />
        </mxCell>
        <mxCell id="hy1i4Z7QahPfgGf05g7D-109" value="Sí" style="text;html=1;strokeColor=none;fillColor=none;align=center;verticalAlign=middle;whiteSpace=wrap;rounded=0;" vertex="1" parent="WIyWlLk6GJQsqaUBKTNV-1">
          <mxGeometry x="200" y="190" width="20" height="20" as="geometry" />
        </mxCell>
        <mxCell id="hy1i4Z7QahPfgGf05g7D-110" value="Sí" style="text;html=1;strokeColor=none;fillColor=none;align=center;verticalAlign=middle;whiteSpace=wrap;rounded=0;" vertex="1" parent="WIyWlLk6GJQsqaUBKTNV-1">
          <mxGeometry x="240" y="330" width="20" height="20" as="geometry" />
        </mxCell>
        <mxCell id="hy1i4Z7QahPfgGf05g7D-112" value="No" style="text;html=1;strokeColor=none;fillColor=none;align=center;verticalAlign=middle;whiteSpace=wrap;rounded=0;" vertex="1" parent="WIyWlLk6GJQsqaUBKTNV-1">
          <mxGeometry x="280" y="280" width="20" height="20" as="geometry" />
        </mxCell>
        <mxCell id="hy1i4Z7QahPfgGf05g7D-115" value="Sí" style="text;html=1;strokeColor=none;fillColor=none;align=center;verticalAlign=middle;whiteSpace=wrap;rounded=0;" vertex="1" parent="WIyWlLk6GJQsqaUBKTNV-1">
          <mxGeometry x="240" y="690" width="20" height="20" as="geometry" />
        </mxCell>
        <mxCell id="hy1i4Z7QahPfgGf05g7D-117" value="No" style="text;html=1;strokeColor=none;fillColor=none;align=center;verticalAlign=middle;whiteSpace=wrap;rounded=0;" vertex="1" parent="WIyWlLk6GJQsqaUBKTNV-1">
          <mxGeometry x="280" y="630" width="20" height="20" as="geometry" />
        </mxCell>
        <mxCell id="hy1i4Z7QahPfgGf05g7D-121" value="Sí" style="text;html=1;strokeColor=none;fillColor=none;align=center;verticalAlign=middle;whiteSpace=wrap;rounded=0;" vertex="1" parent="WIyWlLk6GJQsqaUBKTNV-1">
          <mxGeometry x="240" y="790" width="20" height="20" as="geometry" />
        </mxCell>
        <mxCell id="hy1i4Z7QahPfgGf05g7D-122" value="No" style="text;html=1;strokeColor=none;fillColor=none;align=center;verticalAlign=middle;whiteSpace=wrap;rounded=0;" vertex="1" parent="WIyWlLk6GJQsqaUBKTNV-1">
          <mxGeometry x="280" y="730" width="20" height="20" as="geometry" />
        </mxCell>
        <mxCell id="hy1i4Z7QahPfgGf05g7D-123" value="No" style="text;html=1;strokeColor=none;fillColor=none;align=center;verticalAlign=middle;whiteSpace=wrap;rounded=0;" vertex="1" parent="WIyWlLk6GJQsqaUBKTNV-1">
          <mxGeometry x="280" y="880" width="20" height="20" as="geometry" />
        </mxCell>
        <mxCell id="hy1i4Z7QahPfgGf05g7D-125" value="Sí" style="text;html=1;strokeColor=none;fillColor=none;align=center;verticalAlign=middle;whiteSpace=wrap;rounded=0;" vertex="1" parent="WIyWlLk6GJQsqaUBKTNV-1">
          <mxGeometry x="240" y="940" width="20" height="20" as="geometry" />
        </mxCell>
      </root>
    </mxGraphModel>
  </diagram>
</mxfile>
